<mxfile host="app.diagrams.net" modified="2020-11-08T17:23:29.074Z" agent="5.0 (Windows NT 10.0; Win64; x64) AppleWebKit/537.36 (KHTML, like Gecko) Chrome/86.0.4240.183 Safari/537.36" etag="3vGBuQU4CNXmUfNLOnrZ" version="13.9.2" type="github">
  <diagram name="Page-1" id="822b0af5-4adb-64df-f703-e8dfc1f81529">
    <mxGraphModel dx="1422" dy="922" grid="1" gridSize="10" guides="1" tooltips="1" connect="1" arrows="1" fold="1" page="1" pageScale="1" pageWidth="1100" pageHeight="850" background="#ffffff" math="0" shadow="0">
      <root>
        <mxCell id="0" />
        <mxCell id="1" parent="0" />
        <mxCell id="In-exWz_-cnZ1oBUNG91-36" value="" style="group" parent="1" vertex="1" connectable="0">
          <mxGeometry x="290" y="89" width="330" height="280" as="geometry" />
        </mxCell>
        <mxCell id="In-exWz_-cnZ1oBUNG91-37" value="" style="group" parent="In-exWz_-cnZ1oBUNG91-36" vertex="1" connectable="0">
          <mxGeometry width="330" height="280" as="geometry" />
        </mxCell>
        <mxCell id="In-exWz_-cnZ1oBUNG91-35" value="Jetson NX" style="fillColor=#EFF0F3;strokeColor=none;dashed=0;verticalAlign=top;fontStyle=1;fontColor=#232F3D;fontSize=16;" parent="In-exWz_-cnZ1oBUNG91-37" vertex="1">
          <mxGeometry y="35" width="330" height="275" as="geometry" />
        </mxCell>
        <mxCell id="In-exWz_-cnZ1oBUNG91-39" value="object tracker" style="outlineConnect=0;fontColor=#232F3E;gradientColor=none;fillColor=#D05C17;strokeColor=none;dashed=0;verticalLabelPosition=bottom;verticalAlign=top;align=center;html=1;fontSize=12;fontStyle=0;aspect=fixed;pointerEvents=1;shape=mxgraph.aws4.container_1;" parent="In-exWz_-cnZ1oBUNG91-37" vertex="1">
          <mxGeometry x="42.625" y="115.00000000000001" width="78" height="50" as="geometry" />
        </mxCell>
        <mxCell id="In-exWz_-cnZ1oBUNG91-38" value="Inference" style="outlineConnect=0;fontColor=#232F3E;gradientColor=none;fillColor=#D05C17;strokeColor=none;dashed=0;verticalLabelPosition=bottom;verticalAlign=top;align=center;html=1;fontSize=12;fontStyle=0;aspect=fixed;pointerEvents=1;shape=mxgraph.aws4.container_3;" parent="In-exWz_-cnZ1oBUNG91-37" vertex="1">
          <mxGeometry x="136" y="211" width="78" height="50" as="geometry" />
        </mxCell>
        <mxCell id="_cOhHdVvYaqOJQSYCtPf-4" value="preprocessing" style="outlineConnect=0;fontColor=#232F3E;gradientColor=none;fillColor=#D05C17;strokeColor=none;dashed=0;verticalLabelPosition=bottom;verticalAlign=top;align=center;html=1;fontSize=12;fontStyle=0;aspect=fixed;pointerEvents=1;shape=mxgraph.aws4.container_1;" vertex="1" parent="In-exWz_-cnZ1oBUNG91-37">
          <mxGeometry x="223.5" y="115.00000000000001" width="78" height="50" as="geometry" />
        </mxCell>
        <mxCell id="In-exWz_-cnZ1oBUNG91-7" value="" style="edgeStyle=orthogonalEdgeStyle;rounded=0;orthogonalLoop=1;jettySize=auto;html=1;" parent="In-exWz_-cnZ1oBUNG91-37" source="In-exWz_-cnZ1oBUNG91-39" target="_cOhHdVvYaqOJQSYCtPf-4" edge="1">
          <mxGeometry relative="1" as="geometry">
            <mxPoint x="137.85869565217374" y="126.09999999999991" as="sourcePoint" />
            <mxPoint x="536.5079126353413" y="75" as="targetPoint" />
            <Array as="points" />
          </mxGeometry>
        </mxCell>
        <mxCell id="_cOhHdVvYaqOJQSYCtPf-1" value="auto-labelled &lt;br&gt;images" style="outlineConnect=0;fontColor=#232F3E;gradientColor=none;fillColor=#D05C17;strokeColor=none;dashed=0;verticalLabelPosition=bottom;verticalAlign=top;align=center;html=1;fontSize=12;fontStyle=0;aspect=fixed;pointerEvents=1;shape=mxgraph.aws4.container_registry_image;" vertex="1" parent="In-exWz_-cnZ1oBUNG91-37">
          <mxGeometry x="160" y="76.00000000000001" width="30" height="30" as="geometry" />
        </mxCell>
        <mxCell id="In-exWz_-cnZ1oBUNG91-3" value="" style="edgeStyle=orthogonalEdgeStyle;rounded=0;orthogonalLoop=1;jettySize=auto;html=1;" parent="1" source="_cOhHdVvYaqOJQSYCtPf-2" target="In-exWz_-cnZ1oBUNG91-39" edge="1">
          <mxGeometry relative="1" as="geometry">
            <mxPoint x="190.81879780298755" y="202.29999999999995" as="sourcePoint" />
            <mxPoint x="271.7391304347825" y="201.0999999999999" as="targetPoint" />
          </mxGeometry>
        </mxCell>
        <mxCell id="XwL00x07A4kOIY6_NEkA-1" value="AWS Cloud" style="points=[[0,0],[0.25,0],[0.5,0],[0.75,0],[1,0],[1,0.25],[1,0.5],[1,0.75],[1,1],[0.75,1],[0.5,1],[0.25,1],[0,1],[0,0.75],[0,0.5],[0,0.25]];outlineConnect=0;gradientColor=none;html=1;whiteSpace=wrap;fontSize=12;fontStyle=0;shape=mxgraph.aws4.group;grIcon=mxgraph.aws4.group_aws_cloud;strokeColor=#232F3E;fillColor=none;verticalAlign=top;align=left;spacingLeft=30;fontColor=#232F3E;dashed=0;" parent="1" vertex="1">
          <mxGeometry x="710" y="250" width="220" height="230" as="geometry" />
        </mxCell>
        <mxCell id="In-exWz_-cnZ1oBUNG91-33" value="yolov5 docker" style="outlineConnect=0;fontColor=#232F3E;gradientColor=none;fillColor=#D05C17;strokeColor=none;dashed=0;verticalLabelPosition=bottom;verticalAlign=top;align=center;html=1;fontSize=12;fontStyle=0;aspect=fixed;pointerEvents=1;shape=mxgraph.aws4.container_2;" parent="1" vertex="1">
          <mxGeometry x="730" y="296.41" width="81.39" height="52.17" as="geometry" />
        </mxCell>
        <mxCell id="In-exWz_-cnZ1oBUNG91-43" value="&lt;font style=&quot;font-size: 12px&quot;&gt;trained models&lt;/font&gt;" style="edgeStyle=orthogonalEdgeStyle;rounded=0;orthogonalLoop=1;jettySize=auto;html=1;fontSize=16;" parent="1" source="In-exWz_-cnZ1oBUNG91-33" target="In-exWz_-cnZ1oBUNG91-38" edge="1">
          <mxGeometry relative="1" as="geometry">
            <mxPoint x="349.30500000000006" y="331.5" as="targetPoint" />
          </mxGeometry>
        </mxCell>
        <mxCell id="XwL00x07A4kOIY6_NEkA-5" value="" style="edgeStyle=orthogonalEdgeStyle;rounded=0;orthogonalLoop=1;jettySize=auto;html=1;" parent="1" source="XwL00x07A4kOIY6_NEkA-2" target="In-exWz_-cnZ1oBUNG91-33" edge="1">
          <mxGeometry relative="1" as="geometry" />
        </mxCell>
        <mxCell id="XwL00x07A4kOIY6_NEkA-2" value="train images" style="outlineConnect=0;dashed=0;verticalLabelPosition=bottom;verticalAlign=top;align=center;html=1;shape=mxgraph.aws3.efs;fillColor=#E05243;gradientColor=none;" parent="1" vertex="1">
          <mxGeometry x="840" y="370.00000000000006" width="60" height="75" as="geometry" />
        </mxCell>
        <mxCell id="In-exWz_-cnZ1oBUNG91-46" value="webcam" style="outlineConnect=0;fontColor=#232F3E;gradientColor=none;strokeColor=#232F3E;fillColor=#ffffff;dashed=0;verticalLabelPosition=bottom;verticalAlign=top;align=center;html=1;fontSize=12;fontStyle=0;aspect=fixed;shape=mxgraph.aws4.resourceIcon;resIcon=mxgraph.aws4.camera;" parent="1" vertex="1">
          <mxGeometry x="150" y="295" width="60" height="60" as="geometry" />
        </mxCell>
        <mxCell id="XwL00x07A4kOIY6_NEkA-6" value="" style="edgeStyle=orthogonalEdgeStyle;rounded=0;orthogonalLoop=1;jettySize=auto;html=1;" parent="1" source="In-exWz_-cnZ1oBUNG91-38" target="In-exWz_-cnZ1oBUNG91-46" edge="1">
          <mxGeometry relative="1" as="geometry" />
        </mxCell>
        <mxCell id="XwL00x07A4kOIY6_NEkA-14" value="" style="edgeStyle=orthogonalEdgeStyle;rounded=0;orthogonalLoop=1;jettySize=auto;html=1;" parent="1" source="_cOhHdVvYaqOJQSYCtPf-4" target="XwL00x07A4kOIY6_NEkA-2" edge="1">
          <mxGeometry relative="1" as="geometry">
            <mxPoint x="837.5" y="426.0799999999999" as="targetPoint" />
            <mxPoint x="950" y="307.5" as="sourcePoint" />
          </mxGeometry>
        </mxCell>
        <mxCell id="_cOhHdVvYaqOJQSYCtPf-2" value="webcam (simulate mobile phone)" style="outlineConnect=0;fontColor=#232F3E;gradientColor=none;strokeColor=#232F3E;fillColor=#ffffff;dashed=0;verticalLabelPosition=bottom;verticalAlign=top;align=center;html=1;fontSize=12;fontStyle=0;aspect=fixed;shape=mxgraph.aws4.resourceIcon;resIcon=mxgraph.aws4.camera;" vertex="1" parent="1">
          <mxGeometry x="150" y="199" width="60" height="60" as="geometry" />
        </mxCell>
        <mxCell id="_cOhHdVvYaqOJQSYCtPf-3" value="live capture" style="outlineConnect=0;fontColor=#232F3E;gradientColor=none;fillColor=#D05C17;strokeColor=none;dashed=0;verticalLabelPosition=bottom;verticalAlign=top;align=center;html=1;fontSize=12;fontStyle=0;aspect=fixed;pointerEvents=1;shape=mxgraph.aws4.container_registry_image;" vertex="1" parent="1">
          <mxGeometry x="230" y="156" width="30" height="30" as="geometry" />
        </mxCell>
        <mxCell id="_cOhHdVvYaqOJQSYCtPf-5" value="incremental training images" style="outlineConnect=0;fontColor=#232F3E;gradientColor=none;fillColor=#D05C17;strokeColor=none;dashed=0;verticalLabelPosition=bottom;verticalAlign=top;align=center;html=1;fontSize=12;fontStyle=0;aspect=fixed;pointerEvents=1;shape=mxgraph.aws4.container_registry_image;" vertex="1" parent="1">
          <mxGeometry x="700" y="170" width="30" height="30" as="geometry" />
        </mxCell>
      </root>
    </mxGraphModel>
  </diagram>
</mxfile>
